<svg xmlns="http://www.w3.org/2000/svg" version="1.1" xmlns:xlink="http://www.w3.org/1999/xlink" xmlns:svgjs="http://svgjs.dev/svgjs" width="1000" height="1000" viewBox="0 0 1000 1000"><rect width="1000" height="1000" fill="#ffffff"></rect><g transform="matrix(0.7,0,0,0.7,149.57575757575756,282.1265587044535)"><svg viewBox="0 0 396 247" data-background-color="#ffffff" preserveAspectRatio="xMidYMid meet" height="623" width="1000" xmlns="http://www.w3.org/2000/svg" xmlns:xlink="http://www.w3.org/1999/xlink"><g id="tight-bounds" transform="matrix(1,0,0,1,0.2400000000000091,-0.09999999999999432)"><svg viewBox="0 0 395.52 247.2" height="247.2" width="395.52"><g><svg></svg></g><g><svg viewBox="0 0 395.52 247.2" height="247.2" width="395.52"><g transform="matrix(1,0,0,1,75.54432,93.93488218939648)"><svg viewBox="0 0 244.43135999999998 59.33023562120703" height="59.33023562120703" width="244.43135999999998"><g><svg viewBox="0 0 341.47557994193664 82.88554552428715" height="59.33023562120703" width="244.43135999999998"><g transform="matrix(1,0,0,1,0,11.4552382019818)"><svg viewBox="0 0 244.43135999999998 59.97506912032355" height="59.97506912032355" width="244.43135999999998"><g id="textblocktransform"><svg viewBox="0 0 244.43135999999998 59.97506912032355" height="59.97506912032355" width="244.43135999999998" id="textblock"><g><svg viewBox="0 0 244.43135999999998 59.97506912032355" height="59.97506912032355" width="244.43135999999998"><g transform="matrix(1,0,0,1,0,0)"><svg width="244.43135999999998" viewBox="7.079999923706055 -35.060001373291016 144.8699951171875 35.55000305175781" height="59.97506912032355" data-palette-color="#000000"><path d="M29.98-25.17L29.98-25.17Q29.98-23.44 29.57-21.88 29.15-20.31 28.27-18.9 27.39-17.48 25.84-16.44 24.29-15.41 22.22-14.92L22.22-14.92 32.01 0 27.37 0 17.97-14.45 11.25-14.45 11.25 0 7.08 0 7.08-34.69 19.82-34.69Q20.7-34.69 21.41-34.64 22.12-34.59 23.23-34.39 24.34-34.18 25.2-33.83 26.05-33.47 26.99-32.75 27.93-32.03 28.55-31.05 29.17-30.08 29.58-28.56 29.98-27.05 29.98-25.17ZM11.25-31.05L11.25-18.12 17.24-18.12Q18.48-18.12 19.43-18.2 20.39-18.29 21.67-18.66 22.95-19.04 23.79-19.71 24.63-20.39 25.23-21.67 25.83-22.95 25.83-24.71L25.83-24.71Q25.83-25.95 25.51-26.95 25.2-27.95 24.71-28.6 24.22-29.25 23.51-29.72 22.8-30.2 22.14-30.44 21.48-30.69 20.68-30.83 19.87-30.98 19.35-31.02 18.82-31.05 18.24-31.05L18.24-31.05 11.25-31.05ZM56.69-35.06L56.69-35.06Q60.13-35.06 63.12-33.85 66.11-32.64 68.3-30.44 70.48-28.25 71.73-24.96 72.97-21.68 72.97-17.75L72.97-17.75Q72.97-12.43 70.86-8.29 68.75-4.15 65-1.89 61.25 0.37 56.52 0.37L56.52 0.37Q53.39 0.37 50.53-0.74 47.68-1.86 45.38-3.98 43.09-6.1 41.72-9.53 40.35-12.96 40.35-17.26L40.35-17.26Q40.35-21.29 41.6-24.63 42.84-27.98 45.02-30.26 47.19-32.54 50.19-33.8 53.2-35.06 56.69-35.06ZM56.47-31.42L56.47-31.42Q54.25-31.42 52.19-30.59 50.14-29.76 48.42-28.16 46.7-26.56 45.66-23.86 44.63-21.17 44.63-17.77L44.63-17.77Q44.63-14.53 45.58-11.78 46.53-9.03 48.17-7.18 49.8-5.32 52.04-4.3 54.27-3.27 56.83-3.27L56.83-3.27Q58.57-3.27 60.24-3.78 61.91-4.3 63.45-5.41 64.99-6.52 66.15-8.13 67.31-9.74 68-12.11 68.7-14.48 68.7-17.31L68.7-17.31Q68.7-20.19 67.97-22.58 67.23-24.98 66.03-26.59 64.82-28.2 63.22-29.31 61.62-30.42 59.92-30.92 58.23-31.42 56.47-31.42ZM83.34 0L83.34-34.69 88.59-34.69 107.49-5.66 107.49-34.69 111.64-34.69 111.64 0 106.39 0 87.5-29.08 87.5 0 83.34 0ZM139.2-34.96L139.2-34.96Q145.06-34.96 150.36-32.01L150.36-32.01 148.72-28.91Q146.87-29.88 144.4-30.59 141.94-31.3 139.42-31.3L139.42-31.3Q136.86-31.3 134.48-30.35 132.1-29.39 130.24-27.67 128.39-25.95 127.28-23.33 126.16-20.7 126.16-17.58L126.16-17.58Q126.16-13.45 128-10.16 129.83-6.86 133.05-5.03 136.27-3.2 140.25-3.2L140.25-3.2Q144.96-3.2 147.92-6.03L147.92-6.03 147.92-14.89 138.05-14.89 138.05-18.31 151.95-18.31 151.95-4.69Q151.29-3.93 150.42-3.22 149.55-2.51 148-1.59 146.45-0.66 144.18-0.09 141.91 0.49 139.27 0.49L139.27 0.49Q135.81 0.49 132.89-0.55 129.97-1.59 128-3.32 126.02-5.05 124.65-7.36 123.28-9.67 122.65-12.18 122.01-14.7 122.01-17.31L122.01-17.31Q122.01-20.04 122.71-22.62 123.41-25.2 124.85-27.44 126.29-29.69 128.3-31.36 130.31-33.03 133.12-34 135.93-34.96 139.2-34.96Z" opacity="1" transform="matrix(1,0,0,1,0,0)" fill="#000000" class="wordmark-text-0" data-fill-palette-color="primary" id="text-0"></path></svg></g></svg></g></svg></g></svg></g><g transform="matrix(1,0,0,1,258.59003441764946,0)"><svg viewBox="0 0 82.88554552428715 82.88554552428715" height="82.88554552428715" width="82.88554552428715"><g data-palette-color="#000000"><rect width="22.655382443305157" height="82.88554552428715" fill="#000000" stroke="transparent" data-fill-palette-color="accent" x="0" fill-opacity="1"></rect><rect width="22.655382443305157" height="82.88554552428715" fill="#000000" stroke="transparent" data-fill-palette-color="accent" x="27.628515174762384" fill-opacity="0.75"></rect><rect width="22.655382443305157" height="82.88554552428715" fill="#000000" stroke="transparent" data-fill-palette-color="accent" x="55.25703034952477" fill-opacity="0.5"></rect></g></svg></g></svg></g></svg></g><path d="M195.732 87.935L195.732 26.134 390.665 26.134 390.665 221.066 195.732 221.066 195.732 159.265 199.604 159.265 199.604 217.195 386.794 217.195 386.794 30.005 199.604 30.005 199.604 87.935Z" fill="#000000" stroke="transparent" data-fill-palette-color="primary"></path></svg></g><defs></defs></svg><rect width="395.52" height="247.2" fill="none" stroke="none" visibility="hidden"></rect></g></svg></g></svg>